# xmcd
#
# Track frame offsets: 
#        150
#        14065
#        28429
#        42020
#        56440
#        71335
#        86453
#        100632
#        114921
#        129232
#        143881
#        158139
#        172606
#        187954
#        203197
#        218464
#        232311
#        247319
#        259964
#        274468
#
# Disc length: 3833 seconds
#
# Revision: 2
# Processed by: cddbd v1.5.2PL0 Copyright (c) Steve Scherf et al.
# Submitted via: ExactAudioCopy v0.99pb4
#
DISCID=1b0ef714
DTITLE=Blind Willie Johnson - The Soul of A Man
DYEAR=2004
DGENRE=Blues
TTITLE0=Keep Your Lamp Trimmed And Burning
TTITLE1=You're Gonna Need Somebody On Your Bond
TTITLE2=God Moves On The Water
TTITLE3=Jesus Is Coming Soon
TTITLE4=John The Revelator
TTITLE5=Dark Was The Night - Cold Was The Ground
TTITLE6=Trouble Will Soon Be Over
TTITLE7=Let Your Light Shine On Me
TTITLE8=It's Nobody's Fault But Mine
TTITLE9=The Soul Of A Man
TTITLE10=If I Had My Way I'd Tear This Buillding Down
TTITLE11=Praise God I'm Satisfied
TTITLE12=I'm Gonna Run To The City Of Refuge
TTITLE13=Can't Nobody Hide From God
TTITLE14=Mother's Children Have A Hard Time
TTITLE15=I Know His Blood Can Make Me Whole
TTITLE16=The Rain Don't Fall On Me
TTITLE17=Sweeter As The Years Roll By
TTITLE18=Jesus Make Up My Dying Bed
TTITLE19=Bye And Bye I'm Going To See The King
EXTD=
EXTT0=
EXTT1=
EXTT2=
EXTT3=
EXTT4=
EXTT5=
EXTT6=
EXTT7=
EXTT8=
EXTT9=
EXTT10=
EXTT11=
EXTT12=
EXTT13=
EXTT14=
EXTT15=
EXTT16=
EXTT17=
EXTT18=
EXTT19=
PLAYORDER=
